<mxfile host="app.diagrams.net" agent="Mozilla/5.0 (Windows NT 10.0; Win64; x64) AppleWebKit/537.36 (KHTML, like Gecko) Chrome/131.0.0.0 Safari/537.36" version="25.0.3">
  <diagram name="페이지-1" id="O1NFOSIugZ80IWQsbV5E">
    <mxGraphModel dx="2523" dy="2017" grid="0" gridSize="10" guides="1" tooltips="1" connect="1" arrows="1" fold="1" page="0" pageScale="1" pageWidth="1169" pageHeight="827" math="0" shadow="0">
      <root>
        <mxCell id="0" />
        <mxCell id="1" parent="0" />
        <mxCell id="Svjt8g3QnGKWeSfRpnHp-34" value="" style="rounded=1;whiteSpace=wrap;html=1;fillColor=#A9C4EB;strokeColor=#A9C4EB;" vertex="1" parent="1">
          <mxGeometry x="-280" y="-678" width="120" height="135" as="geometry" />
        </mxCell>
        <mxCell id="Svjt8g3QnGKWeSfRpnHp-33" value="" style="rounded=1;whiteSpace=wrap;html=1;fillColor=#dae8fc;strokeColor=none;" vertex="1" parent="1">
          <mxGeometry x="-787" y="-910" width="400" height="400" as="geometry" />
        </mxCell>
        <mxCell id="Svjt8g3QnGKWeSfRpnHp-21" value="" style="rounded=1;whiteSpace=wrap;html=1;fillColor=#A9C4EB;strokeColor=#A9C4EB;" vertex="1" parent="1">
          <mxGeometry x="-559" y="-678" width="120" height="135" as="geometry" />
        </mxCell>
        <mxCell id="Svjt8g3QnGKWeSfRpnHp-22" value="" style="rounded=1;whiteSpace=wrap;html=1;fillColor=#A9C4EB;strokeColor=#A9C4EB;" vertex="1" parent="1">
          <mxGeometry x="-559" y="-884" width="120" height="135" as="geometry" />
        </mxCell>
        <mxCell id="Svjt8g3QnGKWeSfRpnHp-20" value="" style="rounded=1;whiteSpace=wrap;html=1;fillColor=#A9C4EB;strokeColor=#A9C4EB;" vertex="1" parent="1">
          <mxGeometry x="-734" y="-676" width="120" height="135" as="geometry" />
        </mxCell>
        <mxCell id="Svjt8g3QnGKWeSfRpnHp-1" value="" style="rounded=1;whiteSpace=wrap;html=1;fillColor=#dae8fc;strokeColor=#6c8ebf;" vertex="1" parent="1">
          <mxGeometry x="-1014" y="25" width="141" height="194" as="geometry" />
        </mxCell>
        <mxCell id="Svjt8g3QnGKWeSfRpnHp-16" value="" style="shape=image;verticalLabelPosition=bottom;labelBackgroundColor=default;verticalAlign=top;aspect=fixed;imageAspect=0;image=https://cdn-icons-png.flaticon.com/512/274/274439.png;" vertex="1" parent="1">
          <mxGeometry x="-724" y="-658.5" width="100" height="100" as="geometry" />
        </mxCell>
        <mxCell id="Svjt8g3QnGKWeSfRpnHp-17" value="" style="shape=image;verticalLabelPosition=bottom;labelBackgroundColor=default;verticalAlign=top;aspect=fixed;imageAspect=0;image=https://cdn-icons-png.flaticon.com/512/916/916837.png;" vertex="1" parent="1">
          <mxGeometry x="-549" y="-660.5" width="100" height="100" as="geometry" />
        </mxCell>
        <mxCell id="Svjt8g3QnGKWeSfRpnHp-18" value="" style="shape=image;verticalLabelPosition=bottom;labelBackgroundColor=default;verticalAlign=top;aspect=fixed;imageAspect=0;image=https://cdn-icons-png.flaticon.com/512/977/977597.png;" vertex="1" parent="1">
          <mxGeometry x="-270" y="-660.5" width="100" height="100" as="geometry" />
        </mxCell>
        <mxCell id="Svjt8g3QnGKWeSfRpnHp-32" value="" style="shape=image;verticalLabelPosition=bottom;labelBackgroundColor=default;verticalAlign=top;aspect=fixed;imageAspect=0;image=https://cdn-icons-png.flaticon.com/512/653/653780.png;" vertex="1" parent="1">
          <mxGeometry x="-549" y="-866.5" width="100" height="100" as="geometry" />
        </mxCell>
        <mxCell id="Svjt8g3QnGKWeSfRpnHp-36" value="&lt;h1&gt;Internet&lt;/h1&gt;" style="rounded=1;whiteSpace=wrap;html=1;textDirection=vertical-rl;strokeColor=none;fillColor=#F8CECC;" vertex="1" parent="1">
          <mxGeometry x="-353" y="-941" width="25" height="454" as="geometry" />
        </mxCell>
        <mxCell id="Svjt8g3QnGKWeSfRpnHp-39" value="" style="endArrow=classic;html=1;rounded=0;fontSize=12;startSize=8;endSize=8;curved=1;exitX=0;exitY=0.25;exitDx=0;exitDy=0;entryX=1;entryY=0.185;entryDx=0;entryDy=0;strokeWidth=3;fillColor=#f8cecc;strokeColor=#FFB570;entryPerimeter=0;" edge="1" parent="1" source="Svjt8g3QnGKWeSfRpnHp-18" target="Svjt8g3QnGKWeSfRpnHp-17">
          <mxGeometry width="50" height="50" relative="1" as="geometry">
            <mxPoint x="-224" y="-583" as="sourcePoint" />
            <mxPoint x="-417" y="-628" as="targetPoint" />
          </mxGeometry>
        </mxCell>
        <mxCell id="Svjt8g3QnGKWeSfRpnHp-40" value="" style="endArrow=classic;html=1;rounded=0;fontSize=12;startSize=8;endSize=8;curved=1;strokeWidth=3;fillColor=#f8cecc;strokeColor=#FFB570;entryX=0.75;entryY=1;entryDx=0;entryDy=0;exitX=0.75;exitY=0;exitDx=0;exitDy=0;" edge="1" parent="1" source="Svjt8g3QnGKWeSfRpnHp-17" target="Svjt8g3QnGKWeSfRpnHp-32">
          <mxGeometry width="50" height="50" relative="1" as="geometry">
            <mxPoint x="-263" y="-704" as="sourcePoint" />
            <mxPoint x="-299" y="-881" as="targetPoint" />
          </mxGeometry>
        </mxCell>
        <mxCell id="Svjt8g3QnGKWeSfRpnHp-41" value="" style="endArrow=classic;html=1;rounded=0;fontSize=12;startSize=8;endSize=8;curved=1;strokeWidth=3;fillColor=#f8cecc;strokeColor=#FFB570;entryX=0.25;entryY=0;entryDx=0;entryDy=0;exitX=0.25;exitY=1;exitDx=0;exitDy=0;" edge="1" parent="1" source="Svjt8g3QnGKWeSfRpnHp-32" target="Svjt8g3QnGKWeSfRpnHp-17">
          <mxGeometry width="50" height="50" relative="1" as="geometry">
            <mxPoint x="-434" y="-683" as="sourcePoint" />
            <mxPoint x="-434" y="-727" as="targetPoint" />
          </mxGeometry>
        </mxCell>
        <mxCell id="Svjt8g3QnGKWeSfRpnHp-42" value="" style="endArrow=classic;html=1;rounded=0;fontSize=12;startSize=8;endSize=8;curved=1;strokeWidth=3;fillColor=#f8cecc;strokeColor=#FFB570;entryX=0;entryY=0.75;entryDx=0;entryDy=0;exitX=0.967;exitY=0.695;exitDx=0;exitDy=0;exitPerimeter=0;" edge="1" parent="1" source="Svjt8g3QnGKWeSfRpnHp-17" target="Svjt8g3QnGKWeSfRpnHp-18">
          <mxGeometry width="50" height="50" relative="1" as="geometry">
            <mxPoint x="-147" y="-546" as="sourcePoint" />
            <mxPoint x="-423" y="-502" as="targetPoint" />
          </mxGeometry>
        </mxCell>
        <mxCell id="Svjt8g3QnGKWeSfRpnHp-44" value="" style="endArrow=classic;html=1;rounded=0;fontSize=12;startSize=8;endSize=8;curved=1;strokeWidth=3;fillColor=#f8cecc;strokeColor=#FFB570;entryX=1;entryY=0.25;entryDx=0;entryDy=0;exitX=0;exitY=0.25;exitDx=0;exitDy=0;" edge="1" parent="1" source="Svjt8g3QnGKWeSfRpnHp-17" target="Svjt8g3QnGKWeSfRpnHp-16">
          <mxGeometry width="50" height="50" relative="1" as="geometry">
            <mxPoint x="-529" y="-502" as="sourcePoint" />
            <mxPoint x="-529" y="-458" as="targetPoint" />
          </mxGeometry>
        </mxCell>
        <mxCell id="Svjt8g3QnGKWeSfRpnHp-46" value="" style="endArrow=classic;html=1;rounded=0;fontSize=12;startSize=8;endSize=8;curved=1;strokeWidth=3;fillColor=#f8cecc;strokeColor=#FFB570;" edge="1" parent="1" source="Svjt8g3QnGKWeSfRpnHp-16" target="Svjt8g3QnGKWeSfRpnHp-17">
          <mxGeometry width="50" height="50" relative="1" as="geometry">
            <mxPoint x="-509" y="-658" as="sourcePoint" />
            <mxPoint x="-546" y="-658" as="targetPoint" />
          </mxGeometry>
        </mxCell>
        <mxCell id="Svjt8g3QnGKWeSfRpnHp-48" value="&lt;font style=&quot;font-size: 16px;&quot; color=&quot;#ffb570&quot;&gt;&lt;b style=&quot;&quot;&gt;1&lt;/b&gt;&lt;/font&gt;" style="ellipse;whiteSpace=wrap;html=1;aspect=fixed;strokeColor=#FFB570;strokeWidth=2;fillColor=none;" vertex="1" parent="1">
          <mxGeometry x="-320" y="-669" width="23" height="23" as="geometry" />
        </mxCell>
        <mxCell id="Svjt8g3QnGKWeSfRpnHp-51" value="&lt;font style=&quot;font-size: 16px;&quot; color=&quot;#ffb570&quot;&gt;&lt;b style=&quot;&quot;&gt;2&lt;/b&gt;&lt;/font&gt;" style="ellipse;whiteSpace=wrap;html=1;aspect=fixed;strokeColor=#FFB570;strokeWidth=2;fillColor=default;" vertex="1" parent="1">
          <mxGeometry x="-469" y="-732" width="23" height="23" as="geometry" />
        </mxCell>
        <mxCell id="Svjt8g3QnGKWeSfRpnHp-52" value="&lt;font style=&quot;font-size: 16px;&quot; color=&quot;#ffb570&quot;&gt;&lt;b style=&quot;&quot;&gt;3&lt;/b&gt;&lt;/font&gt;" style="ellipse;whiteSpace=wrap;html=1;aspect=fixed;strokeColor=#FFB570;strokeWidth=2;fillColor=default;" vertex="1" parent="1">
          <mxGeometry x="-549" y="-734" width="23" height="23" as="geometry" />
        </mxCell>
        <mxCell id="Svjt8g3QnGKWeSfRpnHp-53" value="&lt;font style=&quot;font-size: 16px;&quot; color=&quot;#ffb570&quot;&gt;&lt;b style=&quot;&quot;&gt;4&lt;/b&gt;&lt;/font&gt;" style="ellipse;whiteSpace=wrap;html=1;aspect=fixed;strokeColor=#FFB570;strokeWidth=2;fillColor=default;" vertex="1" parent="1">
          <mxGeometry x="-598.5" y="-664" width="23" height="23" as="geometry" />
        </mxCell>
        <mxCell id="Svjt8g3QnGKWeSfRpnHp-54" value="&lt;font style=&quot;font-size: 16px;&quot; color=&quot;#ffb570&quot;&gt;&lt;b style=&quot;&quot;&gt;5&lt;/b&gt;&lt;/font&gt;" style="ellipse;whiteSpace=wrap;html=1;aspect=fixed;strokeColor=#FFB570;strokeWidth=2;fillColor=default;" vertex="1" parent="1">
          <mxGeometry x="-596" y="-599" width="23" height="23" as="geometry" />
        </mxCell>
        <mxCell id="Svjt8g3QnGKWeSfRpnHp-55" value="&lt;font style=&quot;font-size: 16px;&quot; color=&quot;#ffb570&quot;&gt;&lt;b style=&quot;&quot;&gt;6&lt;/b&gt;&lt;/font&gt;" style="ellipse;whiteSpace=wrap;html=1;aspect=fixed;strokeColor=#FFB570;strokeWidth=2;fillColor=none;" vertex="1" parent="1">
          <mxGeometry x="-320" y="-573" width="23" height="23" as="geometry" />
        </mxCell>
        <mxCell id="Svjt8g3QnGKWeSfRpnHp-56" value="&lt;b&gt;사용자 웹&lt;/b&gt;" style="text;html=1;align=center;verticalAlign=middle;whiteSpace=wrap;rounded=0;fontSize=16;" vertex="1" parent="1">
          <mxGeometry x="-268" y="-529.5" width="96" height="30" as="geometry" />
        </mxCell>
        <mxCell id="Svjt8g3QnGKWeSfRpnHp-61" value="&lt;b&gt;Server DB&lt;/b&gt;&lt;span style=&quot;color: rgba(0, 0, 0, 0); font-family: monospace; font-size: 0px; text-align: start; text-wrap-mode: nowrap;&quot;&gt;%3CmxGraphModel%3E%3Croot%3E%3CmxCell%20id%3D%220%22%2F%3E%3CmxCell%20id%3D%221%22%20parent%3D%220%22%2F%3E%3CmxCell%20id%3D%222%22%20value%3D%22%26lt%3Bb%26gt%3B%EC%82%AC%EC%9A%A9%EC%9E%90%20%EC%9B%B9%26lt%3B%2Fb%26gt%3B%22%20style%3D%22text%3Bhtml%3D1%3Balign%3Dcenter%3BverticalAlign%3Dmiddle%3BwhiteSpace%3Dwrap%3Brounded%3D0%3BfontSize%3D16%3B%22%20vertex%3D%221%22%20parent%3D%221%22%3E%3CmxGeometry%20x%3D%22-268%22%20y%3D%22-529.5%22%20width%3D%2296%22%20height%3D%2230%22%20as%3D%22geometry%22%2F%3E%3C%2FmxCell%3E%3C%2Froot%3E%3C%2FmxGraphModel%3E&lt;/span&gt;" style="text;html=1;align=center;verticalAlign=middle;whiteSpace=wrap;rounded=0;fontSize=16;" vertex="1" parent="1">
          <mxGeometry x="-724" y="-540" width="96" height="30" as="geometry" />
        </mxCell>
        <mxCell id="Svjt8g3QnGKWeSfRpnHp-62" value="&lt;b&gt;AI시착 쇼핑몰&lt;br&gt;서버&lt;/b&gt;" style="text;html=1;align=center;verticalAlign=middle;whiteSpace=wrap;rounded=0;fontSize=16;" vertex="1" parent="1">
          <mxGeometry x="-556" y="-541" width="114" height="30" as="geometry" />
        </mxCell>
        <mxCell id="Svjt8g3QnGKWeSfRpnHp-63" value="&lt;b&gt;AI모델&lt;/b&gt;" style="text;html=1;align=center;verticalAlign=middle;whiteSpace=wrap;rounded=0;fontSize=16;" vertex="1" parent="1">
          <mxGeometry x="-559" y="-910" width="114" height="30" as="geometry" />
        </mxCell>
        <mxCell id="Svjt8g3QnGKWeSfRpnHp-67" value="&lt;h1&gt;&lt;b&gt;&lt;font color=&quot;#7ea6e0&quot;&gt;AI시착 모델 쇼핑몰 서비스&lt;/font&gt;&lt;/b&gt;&lt;/h1&gt;" style="text;html=1;align=center;verticalAlign=middle;whiteSpace=wrap;rounded=0;fontSize=16;" vertex="1" parent="1">
          <mxGeometry x="-789" y="-941" width="398" height="30" as="geometry" />
        </mxCell>
      </root>
    </mxGraphModel>
  </diagram>
</mxfile>
